HIERARCHY
ROOT Hips
{
	OFFSET 0.00000 0.00000 0.00000
	CHANNELS 6 Xposition Yposition Zposition Zrotation Yrotation Xrotation 
	JOINT LHipJoint
	{
		OFFSET 0 0 0
		CHANNELS 3 Zrotation Yrotation Xrotation
		JOINT LeftHip
		{
			OFFSET 1.51378 -1.89840 0.47569
			CHANNELS 3 Zrotation Yrotation Xrotation
			JOINT LeftKnee
			{
				OFFSET 2.53380 -6.96157 0.00000
				CHANNELS 3 Zrotation Yrotation Xrotation
				JOINT LeftAnkle
				{
					OFFSET 2.74874 -7.55212 0.00000
					CHANNELS 3 Zrotation Yrotation Xrotation
					JOINT LeftToe
					{
						OFFSET 0.18263 -0.50178 1.99677
						CHANNELS 3 Zrotation Yrotation Xrotation
						End Site
						{
							OFFSET 0.00000 -0.00000 1.03711
						}
					}
				}
			}
		}
	}
	JOINT RHipJoint
	{
		OFFSET 0 0 0
		CHANNELS 3 Zrotation Yrotation Xrotation
		JOINT RightHip
		{
			OFFSET -1.43037 -1.89840 0.47569
			CHANNELS 3 Zrotation Yrotation Xrotation
			JOINT RightKnee
			{
				OFFSET -2.69849 -7.41406 0.00000
				CHANNELS 3 Zrotation Yrotation Xrotation
				JOINT RightAnkle
				{
					OFFSET -2.69369 -7.40087 0.00000
					CHANNELS 3 Zrotation Yrotation Xrotation
					JOINT RightToe
					{
						OFFSET -0.28932 -0.79491 2.04975
						CHANNELS 3 Zrotation Yrotation Xrotation
						End Site
						{
							OFFSET 0.00009 0.00010 1.09536
						}
					}
				}
			}
		}
	}
	JOINT lowerback
	{
		OFFSET 0 0 0
		CHANNELS 3 Zrotation Yrotation Xrotation
		JOINT Chest
		{
			OFFSET 0.01912 1.94784 -0.02419
			CHANNELS 3 Zrotation Yrotation Xrotation
			JOINT Chest2
			{
				OFFSET 0.07565 1.94258 0.01909
				CHANNELS 3 Zrotation Yrotation Xrotation
				JOINT lowerneck
				{
					OFFSET 0 0 0
					CHANNELS 3 Zrotation Yrotation Xrotation
					JOINT Neck
					{
						OFFSET -0.07010 1.86195 0.18976
						CHANNELS 3 Zrotation Yrotation Xrotation
						JOINT Head
						{
							OFFSET 0.02284 1.86595 -0.31497
							CHANNELS 3 Zrotation Yrotation Xrotation
							End Site
							{
								OFFSET 0.01200 1.90122 -0.12838
							}
						}
					}
				}
				JOINT LeftCollar
				{
					OFFSET 0 0 0
					CHANNELS 3 Zrotation Yrotation Xrotation
					JOINT LeftShoulder
					{
						OFFSET 3.39189 0.96331 -0.10437
CHANNELS 3 Zrotation Xrotation Yrotation
						JOINT LeftElbow
						{
OFFSET 0 -5.148450 0.000000
CHANNELS 3 Zrotation Xrotation Yrotation
							JOINT LeftWrist
							{
OFFSET 0 -3.436740 -0.000000
CHANNELS 3 Zrotation Xrotation Yrotation
								JOINT lhand
								{
									OFFSET 0 0 0
CHANNELS 3 Zrotation Xrotation Yrotation
									JOINT LFingers
									{
OFFSET 0 -0.588710 0.000000
CHANNELS 3 Zrotation Xrotation Yrotation
										End Site
										{
OFFSET 0 -0.474630 0.000000
										}
									}
								}
								JOINT LThumb
								{
OFFSET 0 0.000000 0.000000
CHANNELS 3 Zrotation Xrotation Yrotation
									End Site
									{
OFFSET 0 -0.481880 0.481880
									}
								}
							}
						}
					}
				}
				JOINT RightCollar
				{
					OFFSET 0 0 0
					CHANNELS 3 Zrotation Yrotation Xrotation
					JOINT RightShoulder
					{
						OFFSET -3.34934 1.18831 -0.19928
CHANNELS 3 Zrotation Xrotation Yrotation
						JOINT RightElbow
						{
OFFSET 0 -5.421850 0.000000
CHANNELS 3 Zrotation Xrotation Yrotation
							JOINT RightWrist
							{
OFFSET 0 -3.513170 -0.000000
CHANNELS 3 Zrotation Xrotation Yrotation
								JOINT rhand
								{
									OFFSET 0 0 0
CHANNELS 3 Zrotation Xrotation Yrotation
									JOINT RFingers
									{
OFFSET 0 -0.663190 0.000000
CHANNELS 3 Zrotation Xrotation Yrotation
										End Site
										{
OFFSET 0 -0.534680 0.000000
										}
									}
								}
								JOINT RThumb
								{
OFFSET 0 0.000000 0.000000
CHANNELS 3 Zrotation Xrotation Yrotation
									End Site
									{
OFFSET 0 -0.542840 0.542840
									}
								}
							}
						}
					}
				}
			}
		}
	}
}
MOTION
Frames: 4
Frame Time: 0.008333333333333333
1.220282 18.383302 -1.362028 -5.203806 -55.445062 11.532273 0.000000 0.000000 0.000000 -8.861333 -19.903178 -23.003744 11.809241 18.308847 65.382947 -1.005715 -17.429935 6.351687 0.605527 -4.968934 -13.822698 0.000000 0.000000 0.000000 21.728798 10.033010 -20.950140 -4.130804 -12.332366 36.918171 -0.596374 6.822245 -13.855429 -0.432213 4.218876 -11.693188 2.502336 4.553666 2.952786 2.921669 6.084346 1.989135 1.442677 3.031055 0.337253 2.103809 18.899431 -3.669204 -10.796204 29.465799 28.859231 -0.563171 12.441192 12.290961 0.000000 0.000000 0.000000 -4.398915 17.279409 -24.622504 24.099673 -35.269485 7.764078 17.563401 -5.335102 -25.732256 0.000000 0.000000 0.000000 -7.125000 0.000000 0.000000 -13.323808 56.298087 3.738232 0.000000 0.000000 0.000000 -9.765477 -8.465969 21.284202 -28.259093 -39.353721 -10.287600 -28.851285 -19.482930 -11.836385 0.000000 0.000000 0.000000 7.125000 0.000000 0.000000 -1.151974 16.525238 -0.776867
2.386682 18.354961 -1.668474 -7.032435 -57.487037 12.299131 0.000000 0.000000 0.000000 -10.844234 -15.881977 -8.874429 8.398389 16.402709 53.982426 0.691963 -17.118646 29.659393 0.510904 4.564186 12.672463 0.000000 0.000000 0.000000 20.733921 12.170663 -22.271672 -3.560743 -11.551809 34.164246 -0.325584 7.040484 -10.580843 -0.400118 4.058556 -11.241791 2.943074 4.249227 2.173863 3.454367 5.636105 2.069562 1.823903 2.807743 0.847549 2.382178 18.666604 -3.401825 -10.015433 28.917424 29.568625 -0.444425 12.248784 12.370826 0.000000 0.000000 0.000000 -4.041853 18.707412 -25.728004 24.124170 -35.295305 7.778238 17.216846 -6.218384 -26.250183 0.000000 0.000000 0.000000 -7.125000 0.000000 0.000000 -13.959916 56.736930 4.072071 0.000000 0.000000 0.000000 -9.566157 -6.596395 20.865525 -28.126788 -39.232681 -10.203786 -29.303039 -19.390099 -11.488817 0.000000 0.000000 0.000000 7.125000 0.000000 0.000000 -1.495472 16.862736 -0.997629
3.824694 18.127828 -1.958039 -8.325578 -58.634128 14.287306 0.000000 0.000000 0.000000 -14.574382 -16.500796 2.847411 4.211177 12.434122 37.288708 -0.072330 -18.454361 25.511811 2.267255 9.398209 27.051919 0.000000 0.000000 0.000000 18.025311 15.262047 -27.588696 -3.440189 -11.375628 33.557529 -0.141133 6.675785 -7.613349 -0.635074 5.098772 -14.190464 3.306366 3.599783 1.641544 3.804820 4.761400 1.617252 2.010207 2.367737 0.689186 2.263577 18.317583 -3.390888 -9.547177 28.236923 29.727571 -0.393221 11.958924 12.261479 0.000000 0.000000 0.000000 -4.540113 15.742527 -24.910846 23.282785 -34.396585 7.297431 18.533476 -6.578979 -26.352419 0.000000 0.000000 0.000000 -7.125000 0.000000 0.000000 -12.637687 57.116156 3.792515 0.000000 0.000000 0.000000 -9.017604 -3.831901 19.767144 -27.621214 -38.765155 -9.885569 -29.048649 -19.247243 -11.437738 0.000000 0.000000 0.000000 7.125000 0.000000 0.000000 -1.323220 16.951241 -0.880093
5.587810 17.919903 -2.336019 -9.877363 -61.259420 18.756736 0.000000 0.000000 0.000000 -16.008800 -14.395878 2.855005 2.553165 9.933322 28.761568 -0.226844 -17.822687 -10.292272 0.663938 -5.189401 -14.454229 0.000000 0.000000 0.000000 13.000832 20.062955 -34.751062 -2.600926 -10.017515 29.034896 0.081162 5.235470 0.600184 -0.478575 4.425421 -12.278481 2.547118 3.213807 2.415658 4.134673 4.312567 0.936182 2.697946 2.130903 -0.521017 2.527678 18.108172 -3.653896 -10.452817 28.039406 29.319973 -0.726048 11.789591 12.340545 0.000000 0.000000 0.000000 -5.267298 9.828947 -24.401912 23.716583 -34.863052 7.543946 20.280573 -5.315413 -27.144818 0.000000 0.000000 0.000000 -7.125000 0.000000 0.000000 -11.202827 58.288908 3.671498 0.000000 0.000000 0.000000 -8.498303 -2.200492 18.032950 -26.987749 -38.167360 -9.491630 -27.898674 -17.724185 -12.050243 0.000000 0.000000 0.000000 7.125000 0.000000 0.000000 -0.474978 16.400560 -0.321533
